Coordinates
version=1
nRows=10
nColumns=63
inDegrees=yes

Units are S.I. units (second, meters, Newtons, ...)
If the header above contains a line with 'inDegrees', this indicates whether rotational values are in degrees (yes) or radians (no).

endheader
time	pelvis_tilt	pelvis_list	pelvis_rotation	pelvis_tx	pelvis_ty	pelvis_tz	hip_flexion_r	hip_adduction_r	hip_rotation_r	knee_angle_r	knee_angle_r_beta	ankle_angle_r	subtalar_angle_r	mtp_angle_r	hip_flexion_l	hip_adduction_l	hip_rotation_l	knee_angle_l	knee_angle_l_beta	ankle_angle_l	subtalar_angle_l	mtp_angle_l	L5_S1_Flex_Ext	L5_S1_Lat_Bending	L5_S1_axial_rotation	L4_L5_Flex_Ext	L4_L5_Lat_Bending	L4_L5_axial_rotation	L3_L4_Flex_Ext	L3_L4_Lat_Bending	L3_L4_axial_rotation	L2_L3_Flex_Ext	L2_L3_Lat_Bending	L2_L3_axial_rotation	L1_L2_Flex_Ext	L1_L2_Lat_Bending	L1_L2_axial_rotation	L1_T12_Flex_Ext	L1_T12_Lat_Bending	L1_T12_axial_rotation	Abs_r3	Abs_r2	Abs_r1	Abs_t1	Abs_t2	neck_flexion	neck_bending	neck_rotation	arm_flex_r	arm_add_r	arm_rot_r	elbow_flex_r	pro_sup_r	wrist_flex_r	wrist_dev_r	arm_flex_l	arm_add_l	arm_rot_l	elbow_flex_l	pro_sup_l	wrist_flex_l	wrist_dev_l
      0.00800000	    -56.58727824	     -9.84065286	      4.03664141	     -0.28430603	      1.06760621	     -0.04595236	    112.05373685	    -11.99626143	    -11.18652450	     70.99280091	      1.23905812	     16.81958673	      1.58896039	      0.00000000	    104.61068318	     -0.14779857	     10.49728310	     85.11727958	      1.48557678	      2.97929556	     -0.69109795	      0.00000000	     -0.09471359	      1.54599978	     -0.71858296	     -0.17589262	      2.05617971	     -0.76349439	     -0.15560496	      3.75894387	     -0.76349439	     -0.10824817	      3.75894387	     -0.62876009	     -0.08795104	      3.15260276	     -0.58384865	     -0.05411935	      2.39475366	     -0.53893722	     -0.67652973	     17.48865875	     -3.99654283	      0.00000000	      0.00000000	     -0.00000000	      0.00000000	      0.00000000	     65.09925166	    -14.19967463	     21.23507111	     40.73310794	     21.78372590	      0.00000000	      5.72996183	     58.33841428	     -9.61518579	      6.42994719	     45.97520133	     29.53300625	      0.00000000	      5.72996183
      0.01700000	    -56.59863232	    -10.64813587	      4.29280154	     -0.28469160	      1.06867465	     -0.04619968	    109.61243709	    -12.11182661	    -12.61574949	     67.37086999	      1.17584350	     15.78972046	      0.97566169	      0.00000000	    106.09662610	      0.40482068	     11.16990461	     88.35694796	      1.54211966	      4.55127266	     -0.14266147	      0.00000000	     -0.09164413	      1.62620753	     -0.67486542	     -0.17019232	      2.16285601	     -0.71704451	     -0.15056215	      3.95396098	     -0.71704451	     -0.10474008	      3.95396098	     -0.59050724	     -0.08510074	      3.31616239	     -0.54832815	     -0.05236546	      2.51899546	     -0.50614907	     -0.65460488	     18.39598480	     -3.75339901	      0.00000000	      0.00000000	     -0.00000000	      0.00000000	      0.00000000	     64.81029889	    -15.14414157	     21.23615690	     41.66324725	     21.82150090	      0.00000000	      5.71219740	     59.14653069	     -8.97026231	      6.91080497	     44.57535536	     29.54463628	      0.00000000	      5.71219740
      0.02500000	    -56.68562410	    -10.53726385	      4.20498956	     -0.28478579	      1.06871724	     -0.04603726	    109.01968014	    -11.91375489	    -12.76123895	     66.20520119	      1.15549874	     14.92993821	      0.86204605	      0.00000000	    106.71073772	      0.34871137	     11.10835246	     89.43553776	      1.56094460	      5.05981630	      0.05590559	      0.00000000	     -0.09400769	      1.61337635	     -0.68909470	     -0.17458167	      2.14579054	     -0.73216312	     -0.15444523	      3.92276325	     -0.73216312	     -0.10744138	      3.92276325	     -0.60295786	     -0.08729554	      3.28999704	     -0.55988944	     -0.05371599	      2.49911996	     -0.51682102	     -0.67148750	     18.25083590	     -3.83253797	      0.00000000	      0.00000000	     -0.00000000	      0.00000000	      0.00000000	     64.95354845	    -14.94470616	     21.44735517	     41.48016979	     21.56494280	      0.00000000	      5.71552034	     59.03859145	     -9.24305178	      6.81608098	     44.99321837	     29.44195323	      0.00000000	      5.71552034
      0.03300000	    -56.76258048	    -10.35274410	      3.93900166	     -0.28461663	      1.06850426	     -0.04552242	    108.35442222	    -11.46568845	    -12.89704361	     64.93371946	      1.13330720	     13.82211911	      0.39455523	      0.00000000	    107.46111207	      0.05658402	     10.99147218	     90.80245095	      1.58480174	      5.75598101	      0.06937153	      0.00000000	     -0.09489453	      1.59006408	     -0.67156819	     -0.17622864	      2.11478523	     -0.71354120	     -0.15590223	      3.86608181	     -0.71354120	     -0.10845496	      3.86608181	     -0.58762217	     -0.08811906	      3.24245868	     -0.54564916	     -0.05422274	      2.46300927	     -0.50367614	     -0.67782217	     17.98712293	     -3.73506081	      0.00000000	      0.00000000	     -0.00000000	      0.00000000	      0.00000000	     64.95753595	    -14.73898430	     21.58661597	     41.40050153	     21.24421447	      0.00000000	      5.71399875	     58.95623380	     -9.52266814	      6.79614629	     45.21311920	     29.28770158	      0.00000000	      5.71399875
      0.04200000	    -56.76017294	    -10.09530655	      4.26825767	     -0.28450483	      1.06806587	     -0.04593480	    107.68561469	    -11.64090136	    -12.81437511	     63.88375033	      1.11498178	     13.25449310	      0.46978013	      0.00000000	    108.26270918	      0.35275607	     10.69994043	     92.24920637	      1.61005238	      6.16479274	     -0.04230483	      0.00000000	     -0.09326804	      1.55453194	     -0.74943900	     -0.17320808	      2.06752748	     -0.79627894	     -0.15323006	      3.77968896	     -0.79627894	     -0.10659604	      3.77968896	     -0.65575913	     -0.08660870	      3.17000153	     -0.60891919	     -0.05329336	      2.40796997	     -0.56207925	     -0.66620429	     17.58517621	     -4.16815491	      0.00000000	      0.00000000	     -0.00000000	      0.00000000	      0.00000000	     64.90307552	    -14.61509109	     21.60255073	     41.43065235	     21.24843432	      0.00000000	      5.71231475	     58.98784517	     -9.69197766	      6.77461059	     45.29367911	     29.28726966	      0.00000000	      5.71231475
      0.05000000	    -56.91342035	     -9.64129998	      3.41552612	     -0.28414860	      1.06776455	     -0.04421518	    106.86237248	    -10.43781230	    -12.91151989	     62.08339515	      1.08355966	     11.36401417	     -0.60290332	      0.00000000	    109.26823748	     -0.68312746	     10.40542968	     93.90941288	      1.63902845	      7.15381322	     -0.56796143	      0.00000000	     -0.09478612	      1.49384102	     -0.64027436	     -0.17602731	      1.98680855	     -0.68029151	     -0.15572412	      3.63212505	     -0.68029151	     -0.10833106	      3.63212505	     -0.56024007	     -0.08801840	      3.04624060	     -0.52022292	     -0.05416079	      2.31395974	     -0.48020577	     -0.67704781	     16.89862837	     -3.56101393	      0.00000000	      0.00000000	     -0.00000000	      0.00000000	      0.00000000	     64.76647751	    -14.11628392	     21.22596843	     41.29185950	     21.23816286	      0.00000000	      5.67989612	     58.81260196	    -10.27429251	      7.09374653	     45.81645292	     29.32003024	      0.00000000	      5.67989612
      0.05800000	    -56.96151400	     -9.27148168	      3.18839177	     -0.28377110	      1.06723217	     -0.04360919	    105.97786307	     -9.95830425	    -12.90614647	     60.56854730	      1.05712057	     10.39813030	     -0.62688553	      0.00000000	    110.30919609	     -1.10365255	     10.06985477	     95.57951729	      1.66817727	      7.91355789	     -0.98019861	      0.00000000	     -0.09403653	      1.44213841	     -0.63210325	     -0.17463524	      1.91804408	     -0.67160971	     -0.15449262	      3.50641533	     -0.67160971	     -0.10747435	      3.50641533	     -0.55309035	     -0.08732232	      2.94080864	     -0.51358389	     -0.05373247	      2.23387239	     -0.47407744	     -0.67169355	     16.31375810	     -3.51556866	      0.00000000	      0.00000000	     -0.00000000	      0.00000000	      0.00000000	     64.66683001	    -13.79830621	     21.08830461	     41.17414044	     21.23249067	      0.00000000	      5.66585382	     58.69266286	    -10.68126250	      7.23647022	     46.23098163	     29.34024044	      0.00000000	      5.66585382
      0.06700000	    -56.97791331	     -8.91676858	      3.05547247	     -0.28331966	      1.06667330	     -0.04310521	    104.99628040	     -9.57319710	    -12.95578534	     59.00541257	      1.02983873	      9.47564998	     -0.62410279	      0.00000000	    111.38009955	     -1.47906503	      9.70853593	     97.21007113	      1.69663581	      8.66914343	     -1.39104272	      0.00000000	     -0.09336562	      1.38897844	     -0.62965413	     -0.17338930	      1.84734132	     -0.66900751	     -0.15339039	      3.37716217	     -0.66900751	     -0.10670757	      3.37716217	     -0.55094736	     -0.08669932	      2.83240483	     -0.51159398	     -0.05334912	      2.15152760	     -0.47224060	     -0.66690132	     15.71240186	     -3.50194737	      0.00000000	      0.00000000	     -0.00000000	      0.00000000	      0.00000000	     64.53519396	    -13.56661594	     20.96239372	     41.10874451	     21.22303855	      0.00000000	      5.65705195	     58.61343597	    -10.99281566	      7.40893735	     46.58854524	     29.36457022	      0.00000000	      5.65705195
      0.07500000	    -56.95541793	     -8.57658025	      2.83121781	     -0.28272603	      1.06590204	     -0.04238352	    103.99877212	     -9.06860445	    -12.98225704	     57.52976993	      1.00408390	      8.39447055	     -0.85782930	      0.00000000	    112.50564106	     -1.95375946	      9.39203702	     98.89937270	      1.72611968	      9.42809558	     -1.88946383	      0.00000000	     -0.09315760	      1.33491435	     -0.60731220	     -0.17300298	      1.77543608	     -0.64526921	     -0.15304862	      3.24571074	     -0.64526921	     -0.10646982	      3.24571074	     -0.53139817	     -0.08650615	      2.72215734	     -0.49344116	     -0.05323025	      2.06778232	     -0.45548415	     -0.66541541	     15.10081808	     -3.37768825	      0.00000000	      0.00000000	     -0.00000000	      0.00000000	      0.00000000	     64.30061809	    -13.34826642	     20.68539405	     41.15702401	     21.20320831	      0.00000000	      5.64199702	     58.57777225	    -11.32694225	      7.73312184	     46.79798355	     29.40169321	      0.00000000	      5.64199702
      0.08300000	    -56.89051991	     -8.27073638	      3.00440245	     -0.28218490	      1.06526126	     -0.04236125	    102.89117932	     -9.02820942	    -13.10681443	     56.04021057	      0.97808619	      7.66404479	     -0.76499702	      0.00000000	    113.57700047	     -2.03915677	      8.96939605	    100.37081793	      1.75180125	      9.96406638	     -2.15714383	      0.00000000	     -0.09391427	      1.28422344	     -0.65611741	     -0.17440819	      1.70801717	     -0.69712475	     -0.15429175	      3.12246087	     -0.69712475	     -0.10733462	      3.12246087	     -0.57410273	     -0.08720879	      2.61878844	     -0.53309540	     -0.05366261	      1.98926211	     -0.49208806	     -0.67082023	     14.52739239	     -3.64912821	      0.00000000	      0.00000000	     -0.00000000	      0.00000000	      0.00000000	     64.13173594	    -13.19596628	     20.61484814	     41.19333980	     21.19853422	      0.00000000	      5.63701640	     58.55061348	    -11.56903362	      7.85954100	     46.94466894	     29.41878526	      0.00000000	      5.63701640
